<?xml version="1.0" encoding="utf-8"?>
<!-- Generator: Adobe Illustrator 21.1.0, SVG Export Plug-In . SVG Version: 6.00 Build 0)  -->
<svg version="1.1" id="Layer_1" xmlns="http://www.w3.org/2000/svg" xmlns:xlink="http://www.w3.org/1999/xlink" x="0px" y="0px"
	 viewBox="0 0 120 119.9" style="enable-background:new 0 0 120 119.9;" xml:space="preserve">
<style type="text/css">
	.st0{fill:#DA291C;}
</style>
<title>Asset 6</title>
<g id="Layer_2">
	<g id="Layer_1-2">
		<path class="st0" d="M4,90.3c-1.2,0.3-2.4-0.4-2.7-1.6c-0.1-0.4-0.1-0.8,0-1.2L1.9,85c1.4-4.9,2.8-9.8,4.1-14.8
			c0.2-0.7,0.1-1.5-0.2-2.1C-7.6,43.5,3.1,13.6,29,3.2c19.3-7.7,41.4-1.3,53.6,15.5c5.2,7,8.2,15.3,8.8,24c0,0.7,0.4,1.3,1.1,1.5
			c15.3,5.2,24.3,15.9,26.9,31.8c1.3,8.1-0.2,16.5-4.3,23.6c-0.5,0.9-0.6,1.9-0.3,2.9c1,3.5,2.7,9.6,3.7,13.5
			c0.3,1.2-0.4,2.4-1.6,2.7c-0.4,0.1-0.8,0.1-1.2,0l-5.6-1.6c-2.8-0.8-5.6-1.6-8.4-2.3c-0.6-0.1-1.3-0.1-1.8,0.2
			c-21.9,11.8-48.3,1.2-56-22.6c-0.2-0.6-0.4-1-1.1-1c-7-0.4-13.8-2.5-19.9-5.9c-0.5-0.2-1.1-0.2-1.6,0L4,90.3z M10.3,81.3
			c4.2-1.2,8.1-2.2,11.9-3.3c0.9-0.3,1.9-0.1,2.6,0.4c8.8,5.8,19.7,7.7,29.9,5.1c20.9-4.8,33.9-25.5,29.1-46.4
			C79.3,17,59.7,4,39.4,7.6C13.2,11.9-1,41,11.9,64.3c1.6,2.9,2,5.3,0.9,8.3C11.7,75.3,11.1,78.2,10.3,81.3L10.3,81.3z M51.2,91.5
			c0,0.1,0.1,0.2,0.1,0.4c6.7,19.1,30.4,27.1,47.3,15.8c0.7-0.5,1.6-0.7,2.5-0.4c2.5,0.8,5,1.4,7.5,2.1c0.4,0.1,0.7,0.1,1.1,0.2
			c-0.8-3-1.5-5.8-2.4-8.5c-0.3-0.8-0.1-1.6,0.3-2.2c7.5-11.7,7.1-25.4-1.1-36.6c-3.7-5.1-9-9-15-11C87.2,73.8,73.8,87.2,51.2,91.5z
			"/>
		<path class="st0" d="M48.2,56.4h-4.8c-0.6,0-1.1-0.5-1.1-1.1c0-2.4,0-4.8,0-7.1c0-0.3,0.4-0.8,0.7-1c2.4-2.2,4.9-4.4,7.3-6.7
			c2.2-2.1,3.1-4.6,2.1-7.5c-0.8-2.7-3.3-4.7-6.2-4.8c-3.7-0.3-6.5,2-7.5,6c-0.1,0.5-0.5,0.8-1,0.8h-4.9c-0.6,0-1.1-0.5-1.1-1.1
			c0,0,0,0,0,0c0.1-1.7,0.5-3.3,1.3-4.8c2.6-5.1,6.8-7.9,12.5-8c5.4-0.3,10.5,2.8,12.7,7.8c2.6,4.8,2,10.7-1.5,14.8
			c-2.1,2.6-4.8,4.6-7.1,7c-0.2,0.2-0.3,0.4-0.3,0.6c-0.1,1.3-0.2,2.7-0.1,4c0,0.6-0.4,1.1-1,1.1C48.3,56.4,48.2,56.4,48.2,56.4z"/>
		<path class="st0" d="M43.4,63.6h4.7c0.6,0,1.1,0.5,1.1,1.1v4.7c0,0.6-0.5,1.1-1.1,1.1h-4.7c-0.6,0-1.1-0.5-1.1-1.1v-4.7
			C42.4,64,42.8,63.6,43.4,63.6z"/>
	</g>
</g>
</svg>
