<?xml version="1.0" encoding="utf-8"?>
<!-- Generator: Adobe Illustrator 21.1.0, SVG Export Plug-In . SVG Version: 6.00 Build 0)  -->
<svg version="1.1" id="Layer_1" xmlns="http://www.w3.org/2000/svg" xmlns:xlink="http://www.w3.org/1999/xlink" x="0px" y="0px"
	 viewBox="0 0 103 103.3" style="enable-background:new 0 0 103 103.3;" xml:space="preserve">
<style type="text/css">
	.st0{fill:none;stroke:#DA291C;stroke-width:5.85;stroke-miterlimit:10;}
</style>
<title>Asset 5</title>
<g id="Layer_2">
	<g id="Layer_1-2">
		<path class="st0" d="M47.8,4.4L5,44.3c-2.6,2.6-2.7,6.8-0.1,9.4c1.2,1.3,3,2,4.7,2h3.9c0.1,0,0.2,0.1,0.2,0.2v33.4
			c0,6.1,4.9,11,11,11l0,0h12c0.6,0,1-0.4,1-1V76c0-5.5,4.4-9.9,9.9-9.9h0h7.7c5.5,0,9.9,4.4,9.9,9.9v23.4c0,0.6,0.4,1,1,1h12
			c6.1,0,11-4.9,11-11V56c0-0.1,0.1-0.2,0.2-0.2h3.9c3.7,0,6.7-2.9,6.7-6.6c0-1.8-0.7-3.6-2-4.8L55.1,4.4
			C53.1,2.4,49.9,2.4,47.8,4.4z"/>
	</g>
</g>
</svg>
