<?xml version="1.0" encoding="utf-8"?>
<!-- Generator: Adobe Illustrator 21.1.0, SVG Export Plug-In . SVG Version: 6.00 Build 0)  -->
<svg version="1.1" id="Layer_1" xmlns="http://www.w3.org/2000/svg" xmlns:xlink="http://www.w3.org/1999/xlink" x="0px" y="0px"
	 viewBox="0 0 93.3 93.4" style="enable-background:new 0 0 93.3 93.4;" xml:space="preserve">
<style type="text/css">
	.st0{fill:#DA291C;}
</style>
<title>Asset 10</title>
<g id="Layer_2">
	<g id="Layer_1-2">
		<path class="st0" d="M0,21.1c0.1-4.2,1.2-7.9,4.4-10.8C7,7.8,9.5,5.2,12,2.7c3.5-3.5,9.2-3.6,12.8-0.2c4.4,4.3,8.7,8.6,13,13
			c3.4,3.3,3.5,8.8,0.2,12.2c-0.4,0.4-0.9,0.8-1.4,1.2c-0.7,0.4-1.5,0.8-2.3,1.1c-3,1.1-5.1,3.6-5.5,6.8c-0.1,1.1-0.1,2.2,0.2,3.2
			c0.9,3.4,2.4,6.5,4.5,9.3c4.2,5.8,9.7,10.6,16.2,13.8c2.9,1.4,6,2.1,9.1,0.7c2.2-0.9,3.9-2.7,4.7-5c1.6-4.5,6.5-7,11-5.4
			c1.3,0.4,2.4,1.2,3.4,2.1c4.2,4.2,8.3,8.5,12.6,12.6c3.7,3.6,3.8,9.5,0.3,13.2c-0.1,0.1-0.2,0.2-0.3,0.3c-2.5,2.4-5,4.8-7.4,7.4
			c-3.1,3.4-6.9,4.6-11.3,4.4c-4.9-0.3-9.7-1.5-14.1-3.6c-8.7-4-16.8-9.2-23.9-15.6C23.6,65.7,14.9,55.5,8,44.2
			c-3.4-5.4-5.8-11.4-7.2-17.6C0.4,24.8,0.3,22.9,0,21.1z"/>
	</g>
</g>
</svg>
