<?xml version="1.0" encoding="utf-8"?>
<!-- Generator: Adobe Illustrator 21.1.0, SVG Export Plug-In . SVG Version: 6.00 Build 0)  -->
<svg version="1.1" id="Layer_1" xmlns="http://www.w3.org/2000/svg" xmlns:xlink="http://www.w3.org/1999/xlink" x="0px" y="0px"
	 viewBox="0 0 135.7 110.5" style="enable-background:new 0 0 135.7 110.5;" xml:space="preserve">
<style type="text/css">
	.st0{fill:#DA291C;}
	.st1{fill:#DA291C;stroke:#DA291C;stroke-width:0.49;stroke-miterlimit:10;}
</style>
<title>Asset 7</title>
<g id="Layer_2">
	<g id="Layer_1-2">
		<path class="st0" d="M135.7,64.8c0-0.9-0.3-1.7-0.9-2.4c-0.6-0.7-1.3-1.2-2.1-1.7c-1.2-0.6-2.5-1.2-3.8-1.5c-3.9-1.1-8-1.5-12-1.4
			c-2.2,0-4.3,0.2-6.6,0.3c0-1.2-0.1-2.5,0-3.8c0.2-2-0.9-3.8-2.7-4.6c-1.3-0.7-2.7-1.3-4.2-1.7c-0.5-0.1-1.1-0.3-1.6-0.4
			c-6.5-1.4-13.3-1.4-19.8,0c-1,0.2-2,0.5-3,0.8h14v0.9c1.2,0,2.4,0.1,3.7,0.2c1.9,0.2,3.7,0.5,5.5,1c1.4,0.4,2.8,1,4.1,1.7
			c1.5,0.8,1.4,1.8,0,2.7c-1.8,1.1-3.9,1.8-6,2.1c-1.2,0.2-2.4,0.3-3.6,0.5l-3.7,0.4v2.7c1.2,0,2.5-0.1,3.7-0.2
			c3.7-0.2,7.3-1.2,10.7-2.8c0.2,1.2,0.2,1.2-0.9,1.5c-1.4,0.4-2.8,0.9-4.1,1.5c-2,1-3.6,2.4-3.3,5l-2.3,0.3c-0.5,0.1-1,0.1-1.5,0.1
			c-0.7,0-1.4,0.1-2.2,0.1v2.8c1.2,0,2.4-0.1,3.7-0.2c0.8-0.1,1.5-0.1,2.3-0.2v7.1c-0.8,0.1-1.5,0.1-2.3,0.2
			c-1.2,0.1-2.4,0.2-3.7,0.2v2.8c1.2,0,2.4-0.1,3.7-0.2l2.3-0.2v6.9c-0.7,0.1-1.5,0.2-2.3,0.3l-0.6,0.1c-1,0.1-2.1,0.1-3.1,0.2v3.4
			c1.2-0.2,2.4-0.3,3.7-0.5c4.8-0.4,9.7-0.1,14.4,1.2c1.1,0.3,2.1,0.8,3.1,1.2c0.2,0.1,0.3,0.2,0.5,0.3c1.5,1,1.6,1.9,0,2.7
			c-1.4,0.7-2.9,1.4-4.5,1.8c-1.2,0.4-2.5,0.6-3.7,0.7c-2,0.2-4,0.3-6,0.4c-1.2,0-2.5-0.1-3.7-0.2s-2.5-0.2-3.7-0.5v2.8
			c1.2,0.2,2.4,0.3,3.7,0.4s2.5,0.1,3.8,0.1c5.2,0,10.4-0.6,15.4-3c0.1,1.5,0,3-0.1,4.5c-0.1,0.5-0.7,1-1.2,1.2
			c-1.5,0.8-3.1,1.3-4.8,1.8c-4.6,1.1-9.4,1.3-14.2,0.8c-1.3-0.1-2.6-0.4-3.8-0.6c-0.9,1.1-2.2,1.9-3.6,2c0.3,0.1,0.7,0.2,1,0.3
			c1.5,0.4,3.1,0.7,4.7,0.9c5.5,0.8,11.1,0.6,16.5-0.6c2.1-0.4,4-1.2,5.8-2.2c1.7-0.9,2.7-2.6,2.6-4.5c-0.1-1.1,0-2.2,0-3.4h0.6
			c2.8-0.1,5.6-0.5,8.4-1.1c1.9-0.4,3.7-1.1,5.4-2.2c1.6-0.9,2.6-2.6,2.5-4.5C135.6,81.1,135.7,73,135.7,64.8z M102.7,63.8
			c1.3-1,2.7-1.6,4.3-2c3.8-1,7.7-1.4,11.6-1.3c3.6,0,7.2,0.6,10.7,1.7c0.9,0.3,1.8,0.8,2.7,1.3c1.3,0.8,1.3,1.6,0,2.5
			c-1.5,1-3.2,1.6-4.9,1.9c-6.6,1.5-13.4,1.4-19.9-0.2c-1.3-0.4-2.5-0.9-3.7-1.5c-0.3-0.1-0.5-0.3-0.7-0.5
			C101.8,65.1,101.8,64.5,102.7,63.8L102.7,63.8z M102.1,68.8c4.9,2.5,10.2,3,15.5,3s10.5-0.6,15.4-3c0,1.5,0.1,3-0.1,4.5
			c-0.1,0.5-0.6,1-1.1,1.3c-1.6,1-3.4,1.7-5.2,2c-6.4,1.3-13,1.2-19.4-0.4c-1.4-0.4-2.7-1-4-1.7c-0.8-0.3-1.2-1.2-1.1-2
			C102.1,71.3,102,70,102.1,68.8L102.1,68.8z M132.8,90c-0.2,0.6-0.6,1-1.1,1.3c-1.5,0.7-3.1,1.3-4.7,1.8c-2.7,0.7-5.5,1-8.2,1
			c0.4-2.7-1-4.3-3.2-5.5c5.9,0,11.7-0.4,17.2-3.1C132.9,87.1,133,88.6,132.8,90z M132.8,81.6c-0.2,0.6-0.6,1-1.1,1.3
			c-1.5,0.8-3,1.4-4.6,1.8c-6.6,1.6-13.5,1.5-20.1-0.2c-1.4-0.4-2.7-1-4-1.7c-0.7-0.3-1.1-1.1-1-1.9c0.1-1.2,0-2.5,0-3.8
			c4.9,2.5,10.2,3,15.5,3s10.5-0.6,15.4-3C132.9,78.7,133,80.2,132.8,81.6L132.8,81.6z"/>
		<path class="st1" d="M99.6,26.4H72.5c0.8-0.7,1.4-1.1,2-1.6c4.5-3.6,6.9-9.1,6.6-14.9c-0.2-5.2-3.1-8.7-7.8-9.5
			c-6-1.1-12.1,1-16,5.7c-2.2,2.7-4.2,5.5-6,8.4c-1.7-2.5-3.4-5.4-5.6-8c-3.9-4.9-10.1-7.2-16.2-6.2c-3.8,0.4-6.9,3.2-7.6,7
			c-1.5,6.9,1,12.6,6.1,17.3c0.6,0.5,1.2,1,2.1,1.7H2.9c-2.2,0-2.6,0.5-2.6,2.7c0,5.6,0,11.2,0,16.8c0,1.7,0.6,2.3,2.4,2.4
			c1,0,2,0,3.1,0v52.1c0,6,3.8,9.8,9.8,9.8h71.6c2.5,0.1,5-0.8,6.9-2.5c0.8-0.7,1.4-1.6,1.8-2.6c0.7-1.5,1-3.1,1-4.7V48.3h2.9
			c1.2,0,1.9-0.2,2.2-0.8c0.3-0.5,0.4-1.1,0.3-1.8V29.1C102.3,26.9,101.8,26.4,99.6,26.4z M98.6,30.2v14.4H62.3V30.2H98.6z
			 M53.6,19.4c1.4-4.3,3.8-8.2,6.9-11.4c3-3.2,7.3-4.7,11.7-4c3.4,0.5,5.1,2.4,5.3,5.9c0.4,4.6-1.5,9.1-5.1,11.9
			c-2.2,1.6-4.4,3.1-6.8,4.4c-0.2,0.1-0.5,0.2-0.8,0.2c-3.4,0-6.9,0-10.3,0c-0.4-2-0.8-3.9-1.1-5.7C53.3,20.3,53.4,19.8,53.6,19.4
			L53.6,19.4z M25.1,10.4c0.3-4.2,2.3-6.4,6.5-6.5c4.5-0.2,8.8,1.8,11.6,5.4c3.5,4.2,6,9.2,7.1,14.6c0.1,0.8,0.2,1.5,0.3,2.5
			c-3.5,0-6.8-0.2-10,0c-7.1,0.5-16.3-8.4-15.6-16L25.1,10.4z M4,44.6V30.1h36.3v14.4H4z M43.9,106.6c-0.4,0-0.8,0.1-1.2,0.1H15.3
			c-3.8,0-6-2.2-6-5.9c0-16.9,0-33.8,0-50.7v-1.6h34.6L43.9,106.6z M54.8,106.6h-7.1V48.4h7.1L54.8,106.6z M58.5,44.6H44.1V30.2
			h14.4L58.5,44.6z M93.2,100.9c0,1.3-0.4,2.6-1.2,3.7c-0.9,1.1-2.2,1.9-3.6,2c-0.2,0-0.5,0-0.8,0c-9.4,0-18.8,0-28.1,0
			c-0.3,0-0.6,0-0.9-0.1V48.4h34.6L93.2,100.9z"/>
		<path class="st1" d="M46.1,22.2c-1.3-3.9-3.3-7.6-5.9-10.8c-1.7-2.3-4.4-3.7-7.2-3.9c-3.7,0-4.5,0.8-4.2,3.9
			c0.1,3,1.6,5.8,3.9,7.6c3.2,2.6,6.8,4.6,10.7,5.8c0.9,0.3,1.8,0.5,2.5-0.3C46.4,23.9,46.5,23,46.1,22.2z M32.5,11.3
			c3.6-0.2,6.9,4.2,8.7,8.7C36.6,18.8,32.5,14.7,32.5,11.3z"/>
		<path class="st1" d="M73.8,10.2c-0.1-2-0.5-2.5-2.5-2.6c-3-0.4-6,0.7-8.1,2.8c-3.2,3.4-5.6,7.5-6.8,12c-0.2,0.7,0,1.5,0.4,2.1
			c0.6,0.4,1.4,0.6,2.1,0.4c4.1-1.2,8-3.3,11.2-6.1c2.3-1.9,3.6-4.7,3.6-7.7C73.8,10.8,73.8,10.5,73.8,10.2z M61.4,20.2
			c0.9-3.4,5-9.4,8.9-8.8C69.4,16.4,65.2,18.1,61.4,20.2z"/>
	</g>
</g>
</svg>
