<?xml version="1.0" encoding="utf-8"?>
<!-- Generator: Adobe Illustrator 21.1.0, SVG Export Plug-In . SVG Version: 6.00 Build 0)  -->
<svg version="1.1" id="Layer_1" xmlns="http://www.w3.org/2000/svg" xmlns:xlink="http://www.w3.org/1999/xlink" x="0px" y="0px"
	 viewBox="0 0 105.3 105.3" style="enable-background:new 0 0 105.3 105.3;" xml:space="preserve">
<style type="text/css">
	.st0{fill:#DA291C;}
</style>
<title>Asset 8</title>
<path class="st0" d="M64.1,82.7c1.9,0,3.9-0.1,5.8,0c6,0.3,10.6,5.3,10.6,11.2c0,1.7,0,3.4,0,4.7c1,0.5,1.9,1.1,2.7,1.9
	c1,1.3,0.7,3.1-0.5,4.1c-0.4,0.3-0.8,0.5-1.2,0.5c-0.5,0.1-1.1,0.2-1.6,0.2c-18.2,0-36.3,0-54.5,0c-0.7,0-1.5-0.1-2.2-0.4
	c-1.1-0.5-1.8-1.6-1.7-2.8c0-1.2,0.8-2.3,1.9-2.7c0.4-0.2,0.9-0.3,1.4-0.4c0-1.6,0-3.3,0-4.9c-0.1-5.4,3.7-10.2,9-11.2
	c1.4-0.2,2.7-0.3,4.1-0.3c1.1,0,2.2,0,3.4,0c0-0.4,0.1-0.8,0.1-1.1c0-3.9,0-7.8,0-11.6c-0.1-0.5-0.3-1-0.7-1.4
	c-1.8-1.6-3.7-3.1-5.5-4.7c-0.3-0.3-0.6-0.4-1-0.5c-8.5-0.8-15.1-5-20.5-11.4c-5.8-7-9.8-15.4-11.7-24.3C0.7,22.2,0,16.8,0,11.4
	c0-2.6,1.1-3.8,3.8-3.8c3.8,0,7.6,0,11.4,0h1.3c0-1.4,0-2.8,0-4.1c-0.2-1.7,1.1-3.3,2.8-3.5c0.2,0,0.3,0,0.5,0c0.3,0,0.6,0,0.9,0
	h63.9c3.2,0,4.2,1,4.1,4.2c0,1,0,2.1,0,3.3c0.4,0,0.8,0.1,1.3,0.1h11.3c2.9,0,4,1.1,4,3.9c-0.2,12.7-3,24.8-10,35.6
	C91,53.6,85.7,59,78.2,61.6c-2.2,0.7-4.4,1.2-6.7,1.6c-0.4,0.1-0.8,0.2-1.1,0.5c-1.9,1.6-3.9,3.2-5.8,4.8c-0.3,0.3-0.5,0.6-0.6,1
	c0,4.2,0,8.3,0,12.4C64,82.2,64,82.4,64.1,82.7z M82.8,6.2H22.5c0,0.5,0,0.9,0,1.2c0.4,4.6,0.6,9.1,1.2,13.6
	c1.2,9.7,3.9,19.1,8.2,27.9c2.3,5,5.7,9.5,9.8,13.2c4.7,3.9,9.8,5.6,15.8,3.4c3.4-1.3,6.4-3.5,8.7-6.3c4.8-5.4,7.9-11.8,10.4-18.6
	c2.8-8.1,4.7-16.5,5.4-25C82.5,12.5,82.6,9.4,82.8,6.2z M74.5,99.9c0-1.8,0-3.5,0-5.2c0-2.9-2.4-5.2-5.2-5.2c-11.1,0-22.3,0-33.4,0
	c-2.3-0.1-4.3,1.5-4.8,3.7c-0.2,2.2-0.2,4.4-0.1,6.7H74.5z M76.5,56.4c0.3-0.1,0.5-0.1,0.6-0.2c0.4-0.2,0.7-0.3,1.1-0.5
	c4.9-2.5,9-6.2,11.9-10.9c5.2-7.8,7.9-16.5,9-25.8c0.2-1.6,0.2-3.2,0.4-4.9H88.6C87.3,29,84.1,43.2,76.5,56.4L76.5,56.4z M5.8,13.7
	C6,16,6.2,18.1,6.5,20.2c1,8.7,4.1,17.1,8.9,24.4c2.6,3.9,6,7.3,10,9.7c1,0.6,2.1,1.1,3.2,1.6C21.1,42.8,18,28.5,16.6,13.7H5.8z
	 M47.4,72.4v11h10.4v-11C54.4,73.2,50.9,73.2,47.4,72.4L47.4,72.4z"/>
</svg>
