<?xml version="1.0" encoding="utf-8"?>
<!-- Generator: Adobe Illustrator 21.1.0, SVG Export Plug-In . SVG Version: 6.00 Build 0)  -->
<svg version="1.1" id="Layer_1" xmlns="http://www.w3.org/2000/svg" xmlns:xlink="http://www.w3.org/1999/xlink" x="0px" y="0px"
	 viewBox="0 0 132.8 132.8" style="enable-background:new 0 0 132.8 132.8;" xml:space="preserve">
<style type="text/css">
	.st0{fill:#DA291C;}
</style>
<title>Asset 13</title>
<g id="Layer_2">
	<g id="Layer_1-2">
		<path class="st0" d="M66.3,0c36.3-0.1,66.4,29.6,66.4,65.7c0.1,37.3-29.4,67-66.3,67.1C30,132.8,0,103.1,0,66.9
			C-0.3,30.3,29.1,0.3,65.8,0C66,0,66.2,0,66.3,0z M104.7,66.4c-0.2-6.2-0.2-12.5-0.7-18.7c-0.9-10.6-8.7-18.2-19-18.9
			c-12.4-0.8-24.8-0.8-37.2,0c-8.9,0.6-15.8,6.3-18.2,14.9c-1,3.9-1.4,8-1.2,12c0.1,9.8-0.2,19.7,0.5,29.5
			c0.7,10.6,8.6,18.1,18.9,18.8c12.2,0.8,24.4,0.8,36.6,0c11.1-0.6,18.7-8,19.7-18.9C104.5,78.8,104.5,72.6,104.7,66.4z"/>
		<path class="st0" d="M97.8,66.1c-0.1,5.9,0,11.8-0.4,17.6c-0.5,7.9-5.4,12.9-13.3,13.2c-11.3,0.4-22.7,0.8-34,0.5
			c-9.3-0.2-13.9-4.8-14.4-14.1c-0.6-11.4-0.6-22.8-0.3-34.2c0.2-7.9,5.4-12.9,13.2-13.2c11.3-0.5,22.7-0.8,34-0.5
			c9.5,0.3,14.1,5.4,14.5,15c0.2,5.2,0.2,10.5,0.2,15.7L97.8,66.1z M46.8,66.6c0.1,10.8,9,19.5,19.8,19.4S86,77,85.9,66.2
			C85.8,55.4,77,46.7,66.2,46.8C55.4,46.9,46.7,55.7,46.8,66.6C46.8,66.5,46.8,66.6,46.8,66.6L46.8,66.6z M91,45.8
			c0-2.5-2-4.5-4.6-4.5c0,0-0.1,0-0.1,0c-2.5-0.1-4.6,1.9-4.7,4.4c-0.1,2.5,1.9,4.6,4.4,4.7c0.1,0,0.3,0,0.4,0
			C89,50.3,91,48.3,91,45.8z"/>
		<path class="st0" d="M53.7,66.4c0-7,5.6-12.7,12.7-12.8s12.7,5.6,12.8,12.7c0,7-5.6,12.7-12.7,12.8c0,0,0,0,0,0
			C59.4,79.1,53.7,73.4,53.7,66.4z"/>
	</g>
</g>
</svg>
