<?xml version="1.0" encoding="utf-8"?>
<!-- Generator: Adobe Illustrator 21.1.0, SVG Export Plug-In . SVG Version: 6.00 Build 0)  -->
<svg version="1.1" id="Layer_1" xmlns="http://www.w3.org/2000/svg" xmlns:xlink="http://www.w3.org/1999/xlink" x="0px" y="0px"
	 viewBox="0 0 74 74" style="enable-background:new 0 0 74 74;" xml:space="preserve">
<style type="text/css">
	.st0{fill:#DA291C;}
</style>
<title>Asset 12</title>
<g id="Layer_2">
	<g id="Layer_1-2">
		<path class="st0" d="M36.9,0C57.3-0.1,73.9,16.4,74,36.9S57.6,73.9,37.1,74C16.7,74.1,0.1,57.6,0,37.1c0-0.1,0-0.2,0-0.3
			C0.1,16.5,16.5,0.1,36.9,0z M41.3,29.7L41.3,29.7c0-1.5,0-3,0-4.5c0-0.5-0.1-1-0.2-1.5c-0.2-0.9-1-1.5-1.9-1.4c-2.8,0-5.6,0-8.4,0
			c-0.8,0-1.6,0.3-2.1,1c-0.6,0.7-0.6,0.9,0.3,1.1c1,0.2,1.8,0.9,2,1.8c0.8,3.1,0.8,6.3,0,9.4c-0.1,0.6-0.7,1.1-1.4,1
			c-0.2,0-0.5-0.1-0.6-0.3c-0.5-0.3-1-0.7-1.4-1.2c-2.3-3.2-4.2-6.6-5.7-10.2c-0.3-0.9-1.1-1.5-2-1.6c-2.5-0.1-5.1-0.1-7.6,0
			c-1.3,0-1.7,0.8-1.1,2c1.3,2.8,2.5,5.5,3.9,8.2c1.9,3.8,4.2,7.4,6.9,10.7c1.8,2.2,4,4.1,6.5,5.5c3.2,1.6,6.7,2.3,10.2,2.1
			c1.8,0,2.3-0.7,2.5-2.5c0.1-1.1,0.3-2.2,0.7-3.3c0.2-0.8,1.1-1.4,1.9-1.2c0.3,0.1,0.7,0.3,0.9,0.6c1.2,1.1,2.3,2.3,3.4,3.5
			c1.5,1.6,3.1,3,5.5,3s4.8,0,7.2,0c1,0,1.9-0.8,1.9-1.8c0-0.2,0-0.4-0.1-0.5c-0.1-0.6-0.4-1.1-0.7-1.6c-0.8-1.1-1.7-2.2-2.6-3.2
			c-1.2-1.3-2.5-2.6-3.8-3.9c-1.5-1.5-1.6-2.2-0.4-3.9c0.2-0.3,0.5-0.6,0.7-1c2-2.8,4-5.6,5.9-8.4c0.5-0.8,0.8-1.7,1-2.6
			c0-0.5-0.2-0.9-0.5-1.2c-0.5-0.3-1.1-0.5-1.8-0.5c-2.7,0-5.5,0-8.2,0c-0.8,0-1.6,0.5-1.9,1.3c-1.2,2.5-2.3,5.1-3.7,7.5
			c-0.8,1.4-1.8,2.7-2.9,3.9c-0.4,0.6-1.2,0.7-1.8,0.3c-0.2-0.2-0.4-0.4-0.5-0.7c-0.2-0.4-0.3-0.8-0.3-1.3
			C41.3,32.7,41.3,31.2,41.3,29.7z"/>
	</g>
</g>
</svg>
