<?xml version="1.0" encoding="utf-8"?>
<!-- Generator: Adobe Illustrator 21.1.0, SVG Export Plug-In . SVG Version: 6.00 Build 0)  -->
<svg version="1.1" id="Layer_1" xmlns="http://www.w3.org/2000/svg" xmlns:xlink="http://www.w3.org/1999/xlink" x="0px" y="0px"
	 viewBox="0 0 154.6 154.6" style="enable-background:new 0 0 154.6 154.6;" xml:space="preserve">
<style type="text/css">
	.st0{fill:none;stroke:#DA291C;stroke-width:9.15;stroke-miterlimit:10;}
	.st1{fill:#DA291C;}
</style>
<title>Asset 3</title>
<g id="Layer_2">
	<g id="Layer_1-2">
		<circle class="st0" cx="77.3" cy="77.3" r="72.7"/>
		<path class="st1" d="M77.3,123.7H41.6c-2.8,0-4-1.2-4-4c0-4.8,0-9.6,0-14.4c-0.2-11.6,9.1-21.1,20.7-21.3c0.2,0,0.4,0,0.6,0
			c12.3,0,24.6,0,36.9,0c11.6-0.2,21.1,9.1,21.3,20.6c0,0.2,0,0.4,0,0.7c0,4.9,0,9.8,0,14.7c0,2.5-1.3,3.8-3.8,3.8H77.3z"/>
		<path class="st1" d="M77.3,75.1c-12.2,0-22.1-9.9-22-22.1c0-12.2,9.9-22.1,22.1-22c12.2,0,22.1,9.9,22,22.1c0,0,0,0,0,0
			C99.3,65.2,89.4,75.1,77.3,75.1z"/>
	</g>
</g>
</svg>
